<mxfile host="app.diagrams.net" agent="Mozilla/5.0 (Windows NT 10.0; Win64; x64) AppleWebKit/537.36 (KHTML, like Gecko) Chrome/133.0.0.0 Safari/537.36" version="26.0.16">
  <diagram name="Page-1" id="3de5Qh2G4Y109J27_FQv">
    <mxGraphModel dx="1050" dy="1703" grid="1" gridSize="10" guides="1" tooltips="1" connect="1" arrows="1" fold="1" page="1" pageScale="1" pageWidth="850" pageHeight="1100" math="0" shadow="0">
      <root>
        <mxCell id="0" />
        <mxCell id="1" parent="0" />
        <mxCell id="HVY6KOHBtg3tx5gFHr8v-1" value="" style="rounded=0;whiteSpace=wrap;html=1;" vertex="1" parent="1">
          <mxGeometry x="80" y="-560" width="160" height="160" as="geometry" />
        </mxCell>
        <mxCell id="HVY6KOHBtg3tx5gFHr8v-2" value="" style="endArrow=none;html=1;rounded=0;" edge="1" parent="1">
          <mxGeometry width="50" height="50" relative="1" as="geometry">
            <mxPoint x="80" y="-560" as="sourcePoint" />
            <mxPoint x="40" y="-600" as="targetPoint" />
          </mxGeometry>
        </mxCell>
        <mxCell id="HVY6KOHBtg3tx5gFHr8v-5" value="" style="endArrow=none;html=1;rounded=0;exitX=0.75;exitY=1;exitDx=0;exitDy=0;entryX=0.75;entryY=0;entryDx=0;entryDy=0;" edge="1" parent="1" source="HVY6KOHBtg3tx5gFHr8v-1" target="HVY6KOHBtg3tx5gFHr8v-1">
          <mxGeometry width="50" height="50" relative="1" as="geometry">
            <mxPoint x="160" y="-510" as="sourcePoint" />
            <mxPoint x="210" y="-560" as="targetPoint" />
          </mxGeometry>
        </mxCell>
        <mxCell id="HVY6KOHBtg3tx5gFHr8v-6" value="" style="endArrow=none;html=1;rounded=0;exitX=0.75;exitY=1;exitDx=0;exitDy=0;entryX=0.75;entryY=0;entryDx=0;entryDy=0;" edge="1" parent="1">
          <mxGeometry width="50" height="50" relative="1" as="geometry">
            <mxPoint x="120" y="-400" as="sourcePoint" />
            <mxPoint x="120" y="-560" as="targetPoint" />
          </mxGeometry>
        </mxCell>
        <mxCell id="HVY6KOHBtg3tx5gFHr8v-7" value="" style="endArrow=none;html=1;rounded=0;exitX=0.75;exitY=1;exitDx=0;exitDy=0;entryX=0.75;entryY=0;entryDx=0;entryDy=0;" edge="1" parent="1">
          <mxGeometry width="50" height="50" relative="1" as="geometry">
            <mxPoint x="159.5" y="-400" as="sourcePoint" />
            <mxPoint x="159.5" y="-560" as="targetPoint" />
          </mxGeometry>
        </mxCell>
        <mxCell id="HVY6KOHBtg3tx5gFHr8v-8" value="" style="endArrow=none;html=1;rounded=0;exitX=0;exitY=0.25;exitDx=0;exitDy=0;entryX=1;entryY=0.25;entryDx=0;entryDy=0;" edge="1" parent="1" source="HVY6KOHBtg3tx5gFHr8v-1" target="HVY6KOHBtg3tx5gFHr8v-1">
          <mxGeometry width="50" height="50" relative="1" as="geometry">
            <mxPoint x="210" y="-390" as="sourcePoint" />
            <mxPoint x="210" y="-550" as="targetPoint" />
          </mxGeometry>
        </mxCell>
        <mxCell id="HVY6KOHBtg3tx5gFHr8v-9" value="" style="endArrow=none;html=1;rounded=0;exitX=0;exitY=0.25;exitDx=0;exitDy=0;entryX=1;entryY=0.25;entryDx=0;entryDy=0;" edge="1" parent="1">
          <mxGeometry width="50" height="50" relative="1" as="geometry">
            <mxPoint x="80" y="-440" as="sourcePoint" />
            <mxPoint x="240" y="-440" as="targetPoint" />
          </mxGeometry>
        </mxCell>
        <mxCell id="HVY6KOHBtg3tx5gFHr8v-10" value="" style="endArrow=none;html=1;rounded=0;exitX=0;exitY=0.25;exitDx=0;exitDy=0;entryX=1;entryY=0.25;entryDx=0;entryDy=0;" edge="1" parent="1">
          <mxGeometry width="50" height="50" relative="1" as="geometry">
            <mxPoint x="80" y="-480.5" as="sourcePoint" />
            <mxPoint x="240" y="-480.5" as="targetPoint" />
          </mxGeometry>
        </mxCell>
        <mxCell id="HVY6KOHBtg3tx5gFHr8v-11" value="num[2]&lt;div&gt;num[3]&lt;/div&gt;" style="text;html=1;align=center;verticalAlign=middle;whiteSpace=wrap;rounded=0;" vertex="1" parent="1">
          <mxGeometry y="-590" width="60" height="30" as="geometry" />
        </mxCell>
        <mxCell id="HVY6KOHBtg3tx5gFHr8v-12" value="num[0] num[1]" style="text;html=1;align=center;verticalAlign=middle;whiteSpace=wrap;rounded=0;" vertex="1" parent="1">
          <mxGeometry x="40" y="-620" width="60" height="30" as="geometry" />
        </mxCell>
        <mxCell id="HVY6KOHBtg3tx5gFHr8v-13" value="" style="rounded=0;whiteSpace=wrap;html=1;" vertex="1" parent="1">
          <mxGeometry x="320" y="-560" width="160" height="160" as="geometry" />
        </mxCell>
        <mxCell id="HVY6KOHBtg3tx5gFHr8v-14" value="" style="endArrow=none;html=1;rounded=0;" edge="1" parent="1">
          <mxGeometry width="50" height="50" relative="1" as="geometry">
            <mxPoint x="320" y="-560" as="sourcePoint" />
            <mxPoint x="280" y="-600" as="targetPoint" />
          </mxGeometry>
        </mxCell>
        <mxCell id="HVY6KOHBtg3tx5gFHr8v-15" value="" style="endArrow=none;html=1;rounded=0;exitX=0.75;exitY=1;exitDx=0;exitDy=0;entryX=0.75;entryY=0;entryDx=0;entryDy=0;" edge="1" parent="1" source="HVY6KOHBtg3tx5gFHr8v-13" target="HVY6KOHBtg3tx5gFHr8v-13">
          <mxGeometry width="50" height="50" relative="1" as="geometry">
            <mxPoint x="400" y="-510" as="sourcePoint" />
            <mxPoint x="450" y="-560" as="targetPoint" />
          </mxGeometry>
        </mxCell>
        <mxCell id="HVY6KOHBtg3tx5gFHr8v-16" value="" style="endArrow=none;html=1;rounded=0;exitX=0.75;exitY=1;exitDx=0;exitDy=0;entryX=0.75;entryY=0;entryDx=0;entryDy=0;" edge="1" parent="1">
          <mxGeometry width="50" height="50" relative="1" as="geometry">
            <mxPoint x="360" y="-400" as="sourcePoint" />
            <mxPoint x="360" y="-560" as="targetPoint" />
          </mxGeometry>
        </mxCell>
        <mxCell id="HVY6KOHBtg3tx5gFHr8v-17" value="" style="endArrow=none;html=1;rounded=0;exitX=0.75;exitY=1;exitDx=0;exitDy=0;entryX=0.75;entryY=0;entryDx=0;entryDy=0;" edge="1" parent="1">
          <mxGeometry width="50" height="50" relative="1" as="geometry">
            <mxPoint x="399.5" y="-400" as="sourcePoint" />
            <mxPoint x="399.5" y="-560" as="targetPoint" />
          </mxGeometry>
        </mxCell>
        <mxCell id="HVY6KOHBtg3tx5gFHr8v-18" value="" style="endArrow=none;html=1;rounded=0;exitX=0;exitY=0.25;exitDx=0;exitDy=0;entryX=1;entryY=0.25;entryDx=0;entryDy=0;" edge="1" parent="1" source="HVY6KOHBtg3tx5gFHr8v-13" target="HVY6KOHBtg3tx5gFHr8v-13">
          <mxGeometry width="50" height="50" relative="1" as="geometry">
            <mxPoint x="450" y="-390" as="sourcePoint" />
            <mxPoint x="450" y="-550" as="targetPoint" />
          </mxGeometry>
        </mxCell>
        <mxCell id="HVY6KOHBtg3tx5gFHr8v-19" value="" style="endArrow=none;html=1;rounded=0;exitX=0;exitY=0.25;exitDx=0;exitDy=0;entryX=1;entryY=0.25;entryDx=0;entryDy=0;" edge="1" parent="1">
          <mxGeometry width="50" height="50" relative="1" as="geometry">
            <mxPoint x="320" y="-440" as="sourcePoint" />
            <mxPoint x="480" y="-440" as="targetPoint" />
          </mxGeometry>
        </mxCell>
        <mxCell id="HVY6KOHBtg3tx5gFHr8v-20" value="" style="endArrow=none;html=1;rounded=0;exitX=0;exitY=0.25;exitDx=0;exitDy=0;entryX=1;entryY=0.25;entryDx=0;entryDy=0;" edge="1" parent="1">
          <mxGeometry width="50" height="50" relative="1" as="geometry">
            <mxPoint x="320" y="-480.5" as="sourcePoint" />
            <mxPoint x="480" y="-480.5" as="targetPoint" />
          </mxGeometry>
        </mxCell>
        <mxCell id="HVY6KOHBtg3tx5gFHr8v-21" value="num[2]&lt;div&gt;num[3]&lt;/div&gt;" style="text;html=1;align=center;verticalAlign=middle;whiteSpace=wrap;rounded=0;" vertex="1" parent="1">
          <mxGeometry x="240" y="-590" width="60" height="30" as="geometry" />
        </mxCell>
        <mxCell id="HVY6KOHBtg3tx5gFHr8v-22" value="num[0] num[1]" style="text;html=1;align=center;verticalAlign=middle;whiteSpace=wrap;rounded=0;" vertex="1" parent="1">
          <mxGeometry x="280" y="-620" width="60" height="30" as="geometry" />
        </mxCell>
        <mxCell id="HVY6KOHBtg3tx5gFHr8v-23" value="" style="rounded=0;whiteSpace=wrap;html=1;" vertex="1" parent="1">
          <mxGeometry x="560" y="-560" width="160" height="160" as="geometry" />
        </mxCell>
        <mxCell id="HVY6KOHBtg3tx5gFHr8v-24" value="" style="endArrow=none;html=1;rounded=0;" edge="1" parent="1">
          <mxGeometry width="50" height="50" relative="1" as="geometry">
            <mxPoint x="560" y="-560" as="sourcePoint" />
            <mxPoint x="520" y="-600" as="targetPoint" />
          </mxGeometry>
        </mxCell>
        <mxCell id="HVY6KOHBtg3tx5gFHr8v-25" value="" style="endArrow=none;html=1;rounded=0;exitX=0.75;exitY=1;exitDx=0;exitDy=0;entryX=0.75;entryY=0;entryDx=0;entryDy=0;" edge="1" parent="1" source="HVY6KOHBtg3tx5gFHr8v-23" target="HVY6KOHBtg3tx5gFHr8v-23">
          <mxGeometry width="50" height="50" relative="1" as="geometry">
            <mxPoint x="640" y="-510" as="sourcePoint" />
            <mxPoint x="690" y="-560" as="targetPoint" />
          </mxGeometry>
        </mxCell>
        <mxCell id="HVY6KOHBtg3tx5gFHr8v-26" value="" style="endArrow=none;html=1;rounded=0;exitX=0.75;exitY=1;exitDx=0;exitDy=0;entryX=0.75;entryY=0;entryDx=0;entryDy=0;" edge="1" parent="1">
          <mxGeometry width="50" height="50" relative="1" as="geometry">
            <mxPoint x="600" y="-400" as="sourcePoint" />
            <mxPoint x="600" y="-560" as="targetPoint" />
          </mxGeometry>
        </mxCell>
        <mxCell id="HVY6KOHBtg3tx5gFHr8v-27" value="" style="endArrow=none;html=1;rounded=0;exitX=0.75;exitY=1;exitDx=0;exitDy=0;entryX=0.75;entryY=0;entryDx=0;entryDy=0;" edge="1" parent="1">
          <mxGeometry width="50" height="50" relative="1" as="geometry">
            <mxPoint x="639.5" y="-400" as="sourcePoint" />
            <mxPoint x="639.5" y="-560" as="targetPoint" />
          </mxGeometry>
        </mxCell>
        <mxCell id="HVY6KOHBtg3tx5gFHr8v-28" value="" style="endArrow=none;html=1;rounded=0;exitX=0;exitY=0.25;exitDx=0;exitDy=0;entryX=1;entryY=0.25;entryDx=0;entryDy=0;" edge="1" parent="1" source="HVY6KOHBtg3tx5gFHr8v-23" target="HVY6KOHBtg3tx5gFHr8v-23">
          <mxGeometry width="50" height="50" relative="1" as="geometry">
            <mxPoint x="690" y="-390" as="sourcePoint" />
            <mxPoint x="690" y="-550" as="targetPoint" />
          </mxGeometry>
        </mxCell>
        <mxCell id="HVY6KOHBtg3tx5gFHr8v-29" value="" style="endArrow=none;html=1;rounded=0;exitX=0;exitY=0.25;exitDx=0;exitDy=0;entryX=1;entryY=0.25;entryDx=0;entryDy=0;" edge="1" parent="1">
          <mxGeometry width="50" height="50" relative="1" as="geometry">
            <mxPoint x="560" y="-440" as="sourcePoint" />
            <mxPoint x="720" y="-440" as="targetPoint" />
          </mxGeometry>
        </mxCell>
        <mxCell id="HVY6KOHBtg3tx5gFHr8v-30" value="" style="endArrow=none;html=1;rounded=0;exitX=0;exitY=0.25;exitDx=0;exitDy=0;entryX=1;entryY=0.25;entryDx=0;entryDy=0;" edge="1" parent="1">
          <mxGeometry width="50" height="50" relative="1" as="geometry">
            <mxPoint x="560" y="-480.5" as="sourcePoint" />
            <mxPoint x="720" y="-480.5" as="targetPoint" />
          </mxGeometry>
        </mxCell>
        <mxCell id="HVY6KOHBtg3tx5gFHr8v-31" value="num[2]&lt;div&gt;num[3]&lt;/div&gt;" style="text;html=1;align=center;verticalAlign=middle;whiteSpace=wrap;rounded=0;" vertex="1" parent="1">
          <mxGeometry x="480" y="-590" width="60" height="30" as="geometry" />
        </mxCell>
        <mxCell id="HVY6KOHBtg3tx5gFHr8v-32" value="num[0] num[1]" style="text;html=1;align=center;verticalAlign=middle;whiteSpace=wrap;rounded=0;" vertex="1" parent="1">
          <mxGeometry x="520" y="-620" width="60" height="30" as="geometry" />
        </mxCell>
        <mxCell id="HVY6KOHBtg3tx5gFHr8v-33" value="" style="rounded=0;whiteSpace=wrap;html=1;" vertex="1" parent="1">
          <mxGeometry x="80" y="-320" width="160" height="160" as="geometry" />
        </mxCell>
        <mxCell id="HVY6KOHBtg3tx5gFHr8v-34" value="" style="endArrow=none;html=1;rounded=0;" edge="1" parent="1">
          <mxGeometry width="50" height="50" relative="1" as="geometry">
            <mxPoint x="80" y="-320" as="sourcePoint" />
            <mxPoint x="40" y="-360" as="targetPoint" />
          </mxGeometry>
        </mxCell>
        <mxCell id="HVY6KOHBtg3tx5gFHr8v-35" value="" style="endArrow=none;html=1;rounded=0;exitX=0.75;exitY=1;exitDx=0;exitDy=0;entryX=0.75;entryY=0;entryDx=0;entryDy=0;" edge="1" parent="1" source="HVY6KOHBtg3tx5gFHr8v-33" target="HVY6KOHBtg3tx5gFHr8v-33">
          <mxGeometry width="50" height="50" relative="1" as="geometry">
            <mxPoint x="160" y="-270" as="sourcePoint" />
            <mxPoint x="210" y="-320" as="targetPoint" />
          </mxGeometry>
        </mxCell>
        <mxCell id="HVY6KOHBtg3tx5gFHr8v-36" value="" style="endArrow=none;html=1;rounded=0;exitX=0.75;exitY=1;exitDx=0;exitDy=0;entryX=0.75;entryY=0;entryDx=0;entryDy=0;" edge="1" parent="1">
          <mxGeometry width="50" height="50" relative="1" as="geometry">
            <mxPoint x="120" y="-160" as="sourcePoint" />
            <mxPoint x="120" y="-320" as="targetPoint" />
          </mxGeometry>
        </mxCell>
        <mxCell id="HVY6KOHBtg3tx5gFHr8v-37" value="" style="endArrow=none;html=1;rounded=0;exitX=0.75;exitY=1;exitDx=0;exitDy=0;entryX=0.75;entryY=0;entryDx=0;entryDy=0;" edge="1" parent="1">
          <mxGeometry width="50" height="50" relative="1" as="geometry">
            <mxPoint x="159.5" y="-160" as="sourcePoint" />
            <mxPoint x="159.5" y="-320" as="targetPoint" />
          </mxGeometry>
        </mxCell>
        <mxCell id="HVY6KOHBtg3tx5gFHr8v-38" value="" style="endArrow=none;html=1;rounded=0;exitX=0;exitY=0.25;exitDx=0;exitDy=0;entryX=1;entryY=0.25;entryDx=0;entryDy=0;" edge="1" parent="1" source="HVY6KOHBtg3tx5gFHr8v-33" target="HVY6KOHBtg3tx5gFHr8v-33">
          <mxGeometry width="50" height="50" relative="1" as="geometry">
            <mxPoint x="210" y="-150" as="sourcePoint" />
            <mxPoint x="210" y="-310" as="targetPoint" />
          </mxGeometry>
        </mxCell>
        <mxCell id="HVY6KOHBtg3tx5gFHr8v-39" value="" style="endArrow=none;html=1;rounded=0;exitX=0;exitY=0.25;exitDx=0;exitDy=0;entryX=1;entryY=0.25;entryDx=0;entryDy=0;" edge="1" parent="1">
          <mxGeometry width="50" height="50" relative="1" as="geometry">
            <mxPoint x="80" y="-200" as="sourcePoint" />
            <mxPoint x="240" y="-200" as="targetPoint" />
          </mxGeometry>
        </mxCell>
        <mxCell id="HVY6KOHBtg3tx5gFHr8v-40" value="" style="endArrow=none;html=1;rounded=0;exitX=0;exitY=0.25;exitDx=0;exitDy=0;entryX=1;entryY=0.25;entryDx=0;entryDy=0;" edge="1" parent="1">
          <mxGeometry width="50" height="50" relative="1" as="geometry">
            <mxPoint x="80" y="-240.5" as="sourcePoint" />
            <mxPoint x="240" y="-240.5" as="targetPoint" />
          </mxGeometry>
        </mxCell>
        <mxCell id="HVY6KOHBtg3tx5gFHr8v-41" value="num[2]&lt;div&gt;num[3]&lt;/div&gt;" style="text;html=1;align=center;verticalAlign=middle;whiteSpace=wrap;rounded=0;" vertex="1" parent="1">
          <mxGeometry y="-350" width="60" height="30" as="geometry" />
        </mxCell>
        <mxCell id="HVY6KOHBtg3tx5gFHr8v-42" value="num[0] num[1]" style="text;html=1;align=center;verticalAlign=middle;whiteSpace=wrap;rounded=0;" vertex="1" parent="1">
          <mxGeometry x="40" y="-380" width="60" height="30" as="geometry" />
        </mxCell>
        <mxCell id="HVY6KOHBtg3tx5gFHr8v-43" value="" style="rounded=0;whiteSpace=wrap;html=1;" vertex="1" parent="1">
          <mxGeometry x="320" y="-320" width="160" height="160" as="geometry" />
        </mxCell>
        <mxCell id="HVY6KOHBtg3tx5gFHr8v-44" value="" style="endArrow=none;html=1;rounded=0;" edge="1" parent="1">
          <mxGeometry width="50" height="50" relative="1" as="geometry">
            <mxPoint x="320" y="-320" as="sourcePoint" />
            <mxPoint x="280" y="-360" as="targetPoint" />
          </mxGeometry>
        </mxCell>
        <mxCell id="HVY6KOHBtg3tx5gFHr8v-45" value="" style="endArrow=none;html=1;rounded=0;exitX=0.75;exitY=1;exitDx=0;exitDy=0;entryX=0.75;entryY=0;entryDx=0;entryDy=0;" edge="1" parent="1" source="HVY6KOHBtg3tx5gFHr8v-43" target="HVY6KOHBtg3tx5gFHr8v-43">
          <mxGeometry width="50" height="50" relative="1" as="geometry">
            <mxPoint x="400" y="-270" as="sourcePoint" />
            <mxPoint x="450" y="-320" as="targetPoint" />
          </mxGeometry>
        </mxCell>
        <mxCell id="HVY6KOHBtg3tx5gFHr8v-46" value="" style="endArrow=none;html=1;rounded=0;exitX=0.75;exitY=1;exitDx=0;exitDy=0;entryX=0.75;entryY=0;entryDx=0;entryDy=0;" edge="1" parent="1">
          <mxGeometry width="50" height="50" relative="1" as="geometry">
            <mxPoint x="360" y="-160" as="sourcePoint" />
            <mxPoint x="360" y="-320" as="targetPoint" />
          </mxGeometry>
        </mxCell>
        <mxCell id="HVY6KOHBtg3tx5gFHr8v-47" value="" style="endArrow=none;html=1;rounded=0;exitX=0.75;exitY=1;exitDx=0;exitDy=0;entryX=0.75;entryY=0;entryDx=0;entryDy=0;" edge="1" parent="1">
          <mxGeometry width="50" height="50" relative="1" as="geometry">
            <mxPoint x="399.5" y="-160" as="sourcePoint" />
            <mxPoint x="399.5" y="-320" as="targetPoint" />
          </mxGeometry>
        </mxCell>
        <mxCell id="HVY6KOHBtg3tx5gFHr8v-48" value="" style="endArrow=none;html=1;rounded=0;exitX=0;exitY=0.25;exitDx=0;exitDy=0;entryX=1;entryY=0.25;entryDx=0;entryDy=0;" edge="1" parent="1" source="HVY6KOHBtg3tx5gFHr8v-43" target="HVY6KOHBtg3tx5gFHr8v-43">
          <mxGeometry width="50" height="50" relative="1" as="geometry">
            <mxPoint x="450" y="-150" as="sourcePoint" />
            <mxPoint x="450" y="-310" as="targetPoint" />
          </mxGeometry>
        </mxCell>
        <mxCell id="HVY6KOHBtg3tx5gFHr8v-49" value="" style="endArrow=none;html=1;rounded=0;exitX=0;exitY=0.25;exitDx=0;exitDy=0;entryX=1;entryY=0.25;entryDx=0;entryDy=0;" edge="1" parent="1">
          <mxGeometry width="50" height="50" relative="1" as="geometry">
            <mxPoint x="320" y="-200" as="sourcePoint" />
            <mxPoint x="480" y="-200" as="targetPoint" />
          </mxGeometry>
        </mxCell>
        <mxCell id="HVY6KOHBtg3tx5gFHr8v-50" value="" style="endArrow=none;html=1;rounded=0;exitX=0;exitY=0.25;exitDx=0;exitDy=0;entryX=1;entryY=0.25;entryDx=0;entryDy=0;" edge="1" parent="1">
          <mxGeometry width="50" height="50" relative="1" as="geometry">
            <mxPoint x="320" y="-240.5" as="sourcePoint" />
            <mxPoint x="480" y="-240.5" as="targetPoint" />
          </mxGeometry>
        </mxCell>
        <mxCell id="HVY6KOHBtg3tx5gFHr8v-51" value="num[2]&lt;div&gt;num[3]&lt;/div&gt;" style="text;html=1;align=center;verticalAlign=middle;whiteSpace=wrap;rounded=0;" vertex="1" parent="1">
          <mxGeometry x="240" y="-350" width="60" height="30" as="geometry" />
        </mxCell>
        <mxCell id="HVY6KOHBtg3tx5gFHr8v-52" value="num[0] num[1]" style="text;html=1;align=center;verticalAlign=middle;whiteSpace=wrap;rounded=0;" vertex="1" parent="1">
          <mxGeometry x="280" y="-380" width="60" height="30" as="geometry" />
        </mxCell>
        <mxCell id="HVY6KOHBtg3tx5gFHr8v-63" value="" style="rounded=0;whiteSpace=wrap;html=1;" vertex="1" parent="1">
          <mxGeometry x="560" y="-320" width="160" height="160" as="geometry" />
        </mxCell>
        <mxCell id="HVY6KOHBtg3tx5gFHr8v-64" value="" style="endArrow=none;html=1;rounded=0;" edge="1" parent="1">
          <mxGeometry width="50" height="50" relative="1" as="geometry">
            <mxPoint x="560" y="-320" as="sourcePoint" />
            <mxPoint x="520" y="-360" as="targetPoint" />
          </mxGeometry>
        </mxCell>
        <mxCell id="HVY6KOHBtg3tx5gFHr8v-65" value="" style="endArrow=none;html=1;rounded=0;exitX=0.75;exitY=1;exitDx=0;exitDy=0;entryX=0.75;entryY=0;entryDx=0;entryDy=0;" edge="1" parent="1" source="HVY6KOHBtg3tx5gFHr8v-63" target="HVY6KOHBtg3tx5gFHr8v-63">
          <mxGeometry width="50" height="50" relative="1" as="geometry">
            <mxPoint x="640" y="-270" as="sourcePoint" />
            <mxPoint x="690" y="-320" as="targetPoint" />
          </mxGeometry>
        </mxCell>
        <mxCell id="HVY6KOHBtg3tx5gFHr8v-66" value="" style="endArrow=none;html=1;rounded=0;exitX=0.75;exitY=1;exitDx=0;exitDy=0;entryX=0.75;entryY=0;entryDx=0;entryDy=0;" edge="1" parent="1">
          <mxGeometry width="50" height="50" relative="1" as="geometry">
            <mxPoint x="600" y="-160" as="sourcePoint" />
            <mxPoint x="600" y="-320" as="targetPoint" />
          </mxGeometry>
        </mxCell>
        <mxCell id="HVY6KOHBtg3tx5gFHr8v-67" value="" style="endArrow=none;html=1;rounded=0;exitX=0.75;exitY=1;exitDx=0;exitDy=0;entryX=0.75;entryY=0;entryDx=0;entryDy=0;" edge="1" parent="1">
          <mxGeometry width="50" height="50" relative="1" as="geometry">
            <mxPoint x="639.5" y="-160" as="sourcePoint" />
            <mxPoint x="639.5" y="-320" as="targetPoint" />
          </mxGeometry>
        </mxCell>
        <mxCell id="HVY6KOHBtg3tx5gFHr8v-68" value="" style="endArrow=none;html=1;rounded=0;exitX=0;exitY=0.25;exitDx=0;exitDy=0;entryX=1;entryY=0.25;entryDx=0;entryDy=0;" edge="1" parent="1" source="HVY6KOHBtg3tx5gFHr8v-63" target="HVY6KOHBtg3tx5gFHr8v-63">
          <mxGeometry width="50" height="50" relative="1" as="geometry">
            <mxPoint x="690" y="-150" as="sourcePoint" />
            <mxPoint x="690" y="-310" as="targetPoint" />
          </mxGeometry>
        </mxCell>
        <mxCell id="HVY6KOHBtg3tx5gFHr8v-69" value="" style="endArrow=none;html=1;rounded=0;exitX=0;exitY=0.25;exitDx=0;exitDy=0;entryX=1;entryY=0.25;entryDx=0;entryDy=0;" edge="1" parent="1">
          <mxGeometry width="50" height="50" relative="1" as="geometry">
            <mxPoint x="560" y="-200" as="sourcePoint" />
            <mxPoint x="720" y="-200" as="targetPoint" />
          </mxGeometry>
        </mxCell>
        <mxCell id="HVY6KOHBtg3tx5gFHr8v-70" value="" style="endArrow=none;html=1;rounded=0;exitX=0;exitY=0.25;exitDx=0;exitDy=0;entryX=1;entryY=0.25;entryDx=0;entryDy=0;" edge="1" parent="1">
          <mxGeometry width="50" height="50" relative="1" as="geometry">
            <mxPoint x="560" y="-240.5" as="sourcePoint" />
            <mxPoint x="720" y="-240.5" as="targetPoint" />
          </mxGeometry>
        </mxCell>
        <mxCell id="HVY6KOHBtg3tx5gFHr8v-71" value="num[2]&lt;div&gt;num[3]&lt;/div&gt;" style="text;html=1;align=center;verticalAlign=middle;whiteSpace=wrap;rounded=0;" vertex="1" parent="1">
          <mxGeometry x="480" y="-350" width="60" height="30" as="geometry" />
        </mxCell>
        <mxCell id="HVY6KOHBtg3tx5gFHr8v-72" value="num[0] num[1]" style="text;html=1;align=center;verticalAlign=middle;whiteSpace=wrap;rounded=0;" vertex="1" parent="1">
          <mxGeometry x="520" y="-380" width="60" height="30" as="geometry" />
        </mxCell>
        <mxCell id="HVY6KOHBtg3tx5gFHr8v-73" value="" style="rounded=0;whiteSpace=wrap;html=1;" vertex="1" parent="1">
          <mxGeometry x="320" y="-80" width="160" height="160" as="geometry" />
        </mxCell>
        <mxCell id="HVY6KOHBtg3tx5gFHr8v-74" value="" style="endArrow=none;html=1;rounded=0;" edge="1" parent="1">
          <mxGeometry width="50" height="50" relative="1" as="geometry">
            <mxPoint x="320" y="-80" as="sourcePoint" />
            <mxPoint x="280" y="-120" as="targetPoint" />
          </mxGeometry>
        </mxCell>
        <mxCell id="HVY6KOHBtg3tx5gFHr8v-75" value="" style="endArrow=none;html=1;rounded=0;exitX=0.75;exitY=1;exitDx=0;exitDy=0;entryX=0.75;entryY=0;entryDx=0;entryDy=0;" edge="1" parent="1" source="HVY6KOHBtg3tx5gFHr8v-73" target="HVY6KOHBtg3tx5gFHr8v-73">
          <mxGeometry width="50" height="50" relative="1" as="geometry">
            <mxPoint x="400" y="-30" as="sourcePoint" />
            <mxPoint x="450" y="-80" as="targetPoint" />
          </mxGeometry>
        </mxCell>
        <mxCell id="HVY6KOHBtg3tx5gFHr8v-76" value="" style="endArrow=none;html=1;rounded=0;exitX=0.75;exitY=1;exitDx=0;exitDy=0;entryX=0.75;entryY=0;entryDx=0;entryDy=0;" edge="1" parent="1">
          <mxGeometry width="50" height="50" relative="1" as="geometry">
            <mxPoint x="360" y="80" as="sourcePoint" />
            <mxPoint x="360" y="-80" as="targetPoint" />
          </mxGeometry>
        </mxCell>
        <mxCell id="HVY6KOHBtg3tx5gFHr8v-77" value="" style="endArrow=none;html=1;rounded=0;exitX=0.75;exitY=1;exitDx=0;exitDy=0;entryX=0.75;entryY=0;entryDx=0;entryDy=0;" edge="1" parent="1">
          <mxGeometry width="50" height="50" relative="1" as="geometry">
            <mxPoint x="399.5" y="80" as="sourcePoint" />
            <mxPoint x="399.5" y="-80" as="targetPoint" />
          </mxGeometry>
        </mxCell>
        <mxCell id="HVY6KOHBtg3tx5gFHr8v-78" value="" style="endArrow=none;html=1;rounded=0;exitX=0;exitY=0.25;exitDx=0;exitDy=0;entryX=1;entryY=0.25;entryDx=0;entryDy=0;" edge="1" parent="1" source="HVY6KOHBtg3tx5gFHr8v-73" target="HVY6KOHBtg3tx5gFHr8v-73">
          <mxGeometry width="50" height="50" relative="1" as="geometry">
            <mxPoint x="450" y="90" as="sourcePoint" />
            <mxPoint x="450" y="-70" as="targetPoint" />
          </mxGeometry>
        </mxCell>
        <mxCell id="HVY6KOHBtg3tx5gFHr8v-79" value="" style="endArrow=none;html=1;rounded=0;exitX=0;exitY=0.25;exitDx=0;exitDy=0;entryX=1;entryY=0.25;entryDx=0;entryDy=0;" edge="1" parent="1">
          <mxGeometry width="50" height="50" relative="1" as="geometry">
            <mxPoint x="320" y="40" as="sourcePoint" />
            <mxPoint x="480" y="40" as="targetPoint" />
          </mxGeometry>
        </mxCell>
        <mxCell id="HVY6KOHBtg3tx5gFHr8v-80" value="" style="endArrow=none;html=1;rounded=0;exitX=0;exitY=0.25;exitDx=0;exitDy=0;entryX=1;entryY=0.25;entryDx=0;entryDy=0;" edge="1" parent="1">
          <mxGeometry width="50" height="50" relative="1" as="geometry">
            <mxPoint x="320" y="-0.5" as="sourcePoint" />
            <mxPoint x="480" y="-0.5" as="targetPoint" />
          </mxGeometry>
        </mxCell>
        <mxCell id="HVY6KOHBtg3tx5gFHr8v-81" value="num[2]&lt;div&gt;num[3]&lt;/div&gt;" style="text;html=1;align=center;verticalAlign=middle;whiteSpace=wrap;rounded=0;" vertex="1" parent="1">
          <mxGeometry x="240" y="-110" width="60" height="30" as="geometry" />
        </mxCell>
        <mxCell id="HVY6KOHBtg3tx5gFHr8v-82" value="num[0] num[1]" style="text;html=1;align=center;verticalAlign=middle;whiteSpace=wrap;rounded=0;" vertex="1" parent="1">
          <mxGeometry x="280" y="-140" width="60" height="30" as="geometry" />
        </mxCell>
        <mxCell id="HVY6KOHBtg3tx5gFHr8v-83" value="1" style="text;html=1;align=center;verticalAlign=middle;whiteSpace=wrap;rounded=0;" vertex="1" parent="1">
          <mxGeometry x="120" y="-560" width="40" height="40" as="geometry" />
        </mxCell>
        <mxCell id="HVY6KOHBtg3tx5gFHr8v-96" value="1" style="text;html=1;align=center;verticalAlign=middle;whiteSpace=wrap;rounded=0;" vertex="1" parent="1">
          <mxGeometry x="80" y="-520" width="40" height="40" as="geometry" />
        </mxCell>
        <mxCell id="HVY6KOHBtg3tx5gFHr8v-97" value="1" style="text;html=1;align=center;verticalAlign=middle;whiteSpace=wrap;rounded=0;" vertex="1" parent="1">
          <mxGeometry x="120" y="-480" width="40" height="40" as="geometry" />
        </mxCell>
        <mxCell id="HVY6KOHBtg3tx5gFHr8v-98" value="1" style="text;html=1;align=center;verticalAlign=middle;whiteSpace=wrap;rounded=0;" vertex="1" parent="1">
          <mxGeometry x="160" y="-440" width="40" height="40" as="geometry" />
        </mxCell>
        <mxCell id="HVY6KOHBtg3tx5gFHr8v-100" value="1" style="text;html=1;align=center;verticalAlign=middle;whiteSpace=wrap;rounded=0;" vertex="1" parent="1">
          <mxGeometry x="560" y="-480" width="40" height="40" as="geometry" />
        </mxCell>
        <mxCell id="HVY6KOHBtg3tx5gFHr8v-101" value="1" style="text;html=1;align=center;verticalAlign=middle;whiteSpace=wrap;rounded=0;" vertex="1" parent="1">
          <mxGeometry x="320" y="-480" width="40" height="40" as="geometry" />
        </mxCell>
        <mxCell id="HVY6KOHBtg3tx5gFHr8v-102" value="1" style="text;html=1;align=center;verticalAlign=middle;whiteSpace=wrap;rounded=0;" vertex="1" parent="1">
          <mxGeometry x="360" y="-520" width="40" height="40" as="geometry" />
        </mxCell>
        <mxCell id="HVY6KOHBtg3tx5gFHr8v-103" value="1" style="text;html=1;align=center;verticalAlign=middle;whiteSpace=wrap;rounded=0;" vertex="1" parent="1">
          <mxGeometry x="400" y="-480" width="40" height="40" as="geometry" />
        </mxCell>
        <mxCell id="HVY6KOHBtg3tx5gFHr8v-104" value="1" style="text;html=1;align=center;verticalAlign=middle;whiteSpace=wrap;rounded=0;" vertex="1" parent="1">
          <mxGeometry x="440" y="-520" width="40" height="40" as="geometry" />
        </mxCell>
        <mxCell id="HVY6KOHBtg3tx5gFHr8v-105" value="1" style="text;html=1;align=center;verticalAlign=middle;whiteSpace=wrap;rounded=0;" vertex="1" parent="1">
          <mxGeometry x="400" y="-440" width="40" height="40" as="geometry" />
        </mxCell>
        <mxCell id="HVY6KOHBtg3tx5gFHr8v-106" value="1" style="text;html=1;align=center;verticalAlign=middle;whiteSpace=wrap;rounded=0;" vertex="1" parent="1">
          <mxGeometry x="440" y="-480" width="40" height="40" as="geometry" />
        </mxCell>
        <mxCell id="HVY6KOHBtg3tx5gFHr8v-107" value="1" style="text;html=1;align=center;verticalAlign=middle;whiteSpace=wrap;rounded=0;" vertex="1" parent="1">
          <mxGeometry x="680" y="-560" width="40" height="40" as="geometry" />
        </mxCell>
        <mxCell id="HVY6KOHBtg3tx5gFHr8v-108" value="1" style="text;html=1;align=center;verticalAlign=middle;whiteSpace=wrap;rounded=0;" vertex="1" parent="1">
          <mxGeometry x="680" y="-480" width="40" height="40" as="geometry" />
        </mxCell>
        <mxCell id="HVY6KOHBtg3tx5gFHr8v-109" value="1" style="text;html=1;align=center;verticalAlign=middle;whiteSpace=wrap;rounded=0;" vertex="1" parent="1">
          <mxGeometry x="640" y="-480" width="40" height="40" as="geometry" />
        </mxCell>
        <mxCell id="HVY6KOHBtg3tx5gFHr8v-110" value="1" style="text;html=1;align=center;verticalAlign=middle;whiteSpace=wrap;rounded=0;" vertex="1" parent="1">
          <mxGeometry x="160" y="-280" width="40" height="40" as="geometry" />
        </mxCell>
        <mxCell id="HVY6KOHBtg3tx5gFHr8v-111" value="1" style="text;html=1;align=center;verticalAlign=middle;whiteSpace=wrap;rounded=0;" vertex="1" parent="1">
          <mxGeometry x="120" y="-320" width="40" height="40" as="geometry" />
        </mxCell>
        <mxCell id="HVY6KOHBtg3tx5gFHr8v-112" value="1" style="text;html=1;align=center;verticalAlign=middle;whiteSpace=wrap;rounded=0;" vertex="1" parent="1">
          <mxGeometry x="80" y="-280" width="40" height="40" as="geometry" />
        </mxCell>
        <mxCell id="HVY6KOHBtg3tx5gFHr8v-113" value="1" style="text;html=1;align=center;verticalAlign=middle;whiteSpace=wrap;rounded=0;" vertex="1" parent="1">
          <mxGeometry x="160" y="-240" width="40" height="40" as="geometry" />
        </mxCell>
        <mxCell id="HVY6KOHBtg3tx5gFHr8v-114" value="1" style="text;html=1;align=center;verticalAlign=middle;whiteSpace=wrap;rounded=0;" vertex="1" parent="1">
          <mxGeometry x="200" y="-200" width="40" height="40" as="geometry" />
        </mxCell>
        <mxCell id="HVY6KOHBtg3tx5gFHr8v-115" value="1" style="text;html=1;align=center;verticalAlign=middle;whiteSpace=wrap;rounded=0;" vertex="1" parent="1">
          <mxGeometry x="360" y="-280" width="40" height="40" as="geometry" />
        </mxCell>
        <mxCell id="HVY6KOHBtg3tx5gFHr8v-116" value="1" style="text;html=1;align=center;verticalAlign=middle;whiteSpace=wrap;rounded=0;" vertex="1" parent="1">
          <mxGeometry x="400" y="-280" width="40" height="40" as="geometry" />
        </mxCell>
        <mxCell id="HVY6KOHBtg3tx5gFHr8v-117" value="1" style="text;html=1;align=center;verticalAlign=middle;whiteSpace=wrap;rounded=0;" vertex="1" parent="1">
          <mxGeometry x="360" y="-320" width="40" height="40" as="geometry" />
        </mxCell>
        <mxCell id="HVY6KOHBtg3tx5gFHr8v-118" value="1" style="text;html=1;align=center;verticalAlign=middle;whiteSpace=wrap;rounded=0;" vertex="1" parent="1">
          <mxGeometry x="400" y="-320" width="40" height="40" as="geometry" />
        </mxCell>
        <mxCell id="HVY6KOHBtg3tx5gFHr8v-120" value="1" style="text;html=1;align=center;verticalAlign=middle;whiteSpace=wrap;rounded=0;" vertex="1" parent="1">
          <mxGeometry x="320" y="-280" width="40" height="40" as="geometry" />
        </mxCell>
        <mxCell id="HVY6KOHBtg3tx5gFHr8v-121" value="1" style="text;html=1;align=center;verticalAlign=middle;whiteSpace=wrap;rounded=0;" vertex="1" parent="1">
          <mxGeometry x="360" y="-200" width="40" height="40" as="geometry" />
        </mxCell>
        <mxCell id="HVY6KOHBtg3tx5gFHr8v-122" value="1" style="text;html=1;align=center;verticalAlign=middle;whiteSpace=wrap;rounded=0;" vertex="1" parent="1">
          <mxGeometry x="360" y="-80" width="40" height="40" as="geometry" />
        </mxCell>
        <mxCell id="HVY6KOHBtg3tx5gFHr8v-123" value="1" style="text;html=1;align=center;verticalAlign=middle;whiteSpace=wrap;rounded=0;" vertex="1" parent="1">
          <mxGeometry x="320" y="-80" width="40" height="40" as="geometry" />
        </mxCell>
        <mxCell id="HVY6KOHBtg3tx5gFHr8v-124" value="1" style="text;html=1;align=center;verticalAlign=middle;whiteSpace=wrap;rounded=0;" vertex="1" parent="1">
          <mxGeometry x="600" y="-240" width="40" height="40" as="geometry" />
        </mxCell>
        <mxCell id="HVY6KOHBtg3tx5gFHr8v-125" value="1" style="text;html=1;align=center;verticalAlign=middle;whiteSpace=wrap;rounded=0;" vertex="1" parent="1">
          <mxGeometry x="640" y="-280" width="40" height="40" as="geometry" />
        </mxCell>
        <mxCell id="HVY6KOHBtg3tx5gFHr8v-126" value="1" style="text;html=1;align=center;verticalAlign=middle;whiteSpace=wrap;rounded=0;" vertex="1" parent="1">
          <mxGeometry x="680" y="-320" width="40" height="40" as="geometry" />
        </mxCell>
        <mxCell id="HVY6KOHBtg3tx5gFHr8v-127" value="1" style="text;html=1;align=center;verticalAlign=middle;whiteSpace=wrap;rounded=0;" vertex="1" parent="1">
          <mxGeometry x="640" y="-320" width="40" height="40" as="geometry" />
        </mxCell>
        <mxCell id="HVY6KOHBtg3tx5gFHr8v-128" value="1" style="text;html=1;align=center;verticalAlign=middle;whiteSpace=wrap;rounded=0;" vertex="1" parent="1">
          <mxGeometry x="600" y="-320" width="40" height="40" as="geometry" />
        </mxCell>
        <mxCell id="HVY6KOHBtg3tx5gFHr8v-129" value="1" style="text;html=1;align=center;verticalAlign=middle;whiteSpace=wrap;rounded=0;" vertex="1" parent="1">
          <mxGeometry x="400" y="-40" width="40" height="40" as="geometry" />
        </mxCell>
        <mxCell id="HVY6KOHBtg3tx5gFHr8v-130" value="1" style="text;html=1;align=center;verticalAlign=middle;whiteSpace=wrap;rounded=0;" vertex="1" parent="1">
          <mxGeometry x="320" width="40" height="40" as="geometry" />
        </mxCell>
        <mxCell id="HVY6KOHBtg3tx5gFHr8v-136" value="" style="shape=partialRectangle;whiteSpace=wrap;html=1;bottom=1;right=1;left=1;top=0;fillColor=none;routingCenterX=-0.5;" vertex="1" parent="1">
          <mxGeometry x="125" y="-555" width="30" height="30" as="geometry" />
        </mxCell>
        <mxCell id="HVY6KOHBtg3tx5gFHr8v-137" value="" style="shape=partialRectangle;whiteSpace=wrap;html=1;bottom=1;right=1;left=1;top=0;fillColor=none;routingCenterX=-0.5;" vertex="1" parent="1">
          <mxGeometry x="165" y="-435" width="30" height="30" as="geometry" />
        </mxCell>
        <mxCell id="HVY6KOHBtg3tx5gFHr8v-138" value="" style="shape=partialRectangle;whiteSpace=wrap;html=1;bottom=1;right=1;left=1;top=0;fillColor=none;routingCenterX=-0.5;" vertex="1" parent="1">
          <mxGeometry x="125" y="-475" width="30" height="30" as="geometry" />
        </mxCell>
        <mxCell id="HVY6KOHBtg3tx5gFHr8v-139" value="" style="shape=partialRectangle;whiteSpace=wrap;html=1;bottom=1;right=1;left=1;top=0;fillColor=none;routingCenterX=-0.5;" vertex="1" parent="1">
          <mxGeometry x="85" y="-515" width="30" height="30" as="geometry" />
        </mxCell>
        <mxCell id="HVY6KOHBtg3tx5gFHr8v-142" value="" style="shape=partialRectangle;whiteSpace=wrap;html=1;bottom=1;right=1;left=1;top=0;fillColor=none;routingCenterX=-0.5;" vertex="1" parent="1">
          <mxGeometry x="365" y="-515" width="30" height="30" as="geometry" />
        </mxCell>
        <mxCell id="HVY6KOHBtg3tx5gFHr8v-143" value="" style="shape=partialRectangle;whiteSpace=wrap;html=1;bottom=1;right=1;left=1;top=0;fillColor=none;routingCenterX=-0.5;" vertex="1" parent="1">
          <mxGeometry x="405" y="-470" width="30" height="65" as="geometry" />
        </mxCell>
        <mxCell id="HVY6KOHBtg3tx5gFHr8v-144" value="" style="shape=partialRectangle;whiteSpace=wrap;html=1;bottom=1;right=1;left=1;top=0;fillColor=none;routingCenterX=-0.5;" vertex="1" parent="1">
          <mxGeometry x="445" y="-510" width="30" height="65" as="geometry" />
        </mxCell>
        <mxCell id="HVY6KOHBtg3tx5gFHr8v-145" value="" style="shape=partialRectangle;whiteSpace=wrap;html=1;bottom=1;right=1;left=1;top=0;fillColor=none;routingCenterX=-0.5;rotation=90;" vertex="1" parent="1">
          <mxGeometry x="450" y="-475" width="30" height="30" as="geometry" />
        </mxCell>
        <mxCell id="HVY6KOHBtg3tx5gFHr8v-146" value="" style="shape=partialRectangle;whiteSpace=wrap;html=1;bottom=1;right=1;left=1;top=0;fillColor=none;routingCenterX=-0.5;direction=north;" vertex="1" parent="1">
          <mxGeometry x="325" y="-475" width="30" height="30" as="geometry" />
        </mxCell>
        <mxCell id="HVY6KOHBtg3tx5gFHr8v-147" value="" style="shape=partialRectangle;whiteSpace=wrap;html=1;bottom=1;right=1;left=1;top=0;fillColor=none;routingCenterX=-0.5;direction=south;" vertex="1" parent="1">
          <mxGeometry x="645" y="-475" width="65" height="30" as="geometry" />
        </mxCell>
        <mxCell id="HVY6KOHBtg3tx5gFHr8v-148" value="" style="shape=partialRectangle;whiteSpace=wrap;html=1;bottom=1;right=1;left=1;top=0;fillColor=none;routingCenterX=-0.5;direction=south;" vertex="1" parent="1">
          <mxGeometry x="690" y="-475" width="30" height="30" as="geometry" />
        </mxCell>
        <mxCell id="HVY6KOHBtg3tx5gFHr8v-149" value="" style="shape=partialRectangle;whiteSpace=wrap;html=1;bottom=1;right=1;left=1;top=0;fillColor=none;routingCenterX=-0.5;direction=north;" vertex="1" parent="1">
          <mxGeometry x="560" y="-475" width="30" height="30" as="geometry" />
        </mxCell>
        <mxCell id="HVY6KOHBtg3tx5gFHr8v-151" value="" style="shape=partialRectangle;whiteSpace=wrap;html=1;bottom=1;right=1;left=1;top=0;fillColor=none;routingCenterX=-0.5;" vertex="1" parent="1">
          <mxGeometry x="685" y="-555" width="30" height="30" as="geometry" />
        </mxCell>
        <mxCell id="HVY6KOHBtg3tx5gFHr8v-152" value="" style="shape=partialRectangle;whiteSpace=wrap;html=1;bottom=1;right=1;left=1;top=0;fillColor=none;routingCenterX=-0.5;" vertex="1" parent="1">
          <mxGeometry x="125" y="-315" width="30" height="30" as="geometry" />
        </mxCell>
        <mxCell id="HVY6KOHBtg3tx5gFHr8v-153" value="" style="shape=partialRectangle;whiteSpace=wrap;html=1;bottom=1;right=1;left=1;top=0;fillColor=none;routingCenterX=-0.5;" vertex="1" parent="1">
          <mxGeometry x="85" y="-275" width="30" height="30" as="geometry" />
        </mxCell>
        <mxCell id="HVY6KOHBtg3tx5gFHr8v-154" value="" style="shape=partialRectangle;whiteSpace=wrap;html=1;bottom=1;right=1;left=1;top=0;fillColor=none;routingCenterX=-0.5;" vertex="1" parent="1">
          <mxGeometry x="165" y="-270" width="30" height="65" as="geometry" />
        </mxCell>
        <mxCell id="HVY6KOHBtg3tx5gFHr8v-155" value="" style="shape=partialRectangle;whiteSpace=wrap;html=1;bottom=1;right=1;left=1;top=0;fillColor=none;routingCenterX=-0.5;" vertex="1" parent="1">
          <mxGeometry x="205" y="-195" width="30" height="30" as="geometry" />
        </mxCell>
        <mxCell id="HVY6KOHBtg3tx5gFHr8v-156" value="" style="shape=partialRectangle;whiteSpace=wrap;html=1;bottom=1;right=1;left=1;top=0;fillColor=none;routingCenterX=-0.5;direction=south;" vertex="1" parent="1">
          <mxGeometry x="367.5" y="-315" width="65" height="65" as="geometry" />
        </mxCell>
        <mxCell id="HVY6KOHBtg3tx5gFHr8v-157" value="" style="shape=partialRectangle;whiteSpace=wrap;html=1;bottom=1;right=1;left=1;top=0;fillColor=none;routingCenterX=-0.5;direction=north;" vertex="1" parent="1">
          <mxGeometry x="330" y="-275" width="65" height="30" as="geometry" />
        </mxCell>
        <mxCell id="HVY6KOHBtg3tx5gFHr8v-158" value="" style="shape=partialRectangle;whiteSpace=wrap;html=1;bottom=1;right=1;left=1;top=0;fillColor=none;routingCenterX=-0.5;direction=west;" vertex="1" parent="1">
          <mxGeometry x="365" y="-190" width="30" height="30" as="geometry" />
        </mxCell>
        <mxCell id="HVY6KOHBtg3tx5gFHr8v-159" value="" style="shape=partialRectangle;whiteSpace=wrap;html=1;bottom=1;right=1;left=1;top=0;fillColor=none;routingCenterX=-0.5;" vertex="1" parent="1">
          <mxGeometry x="365" y="-320" width="30" height="30" as="geometry" />
        </mxCell>
        <mxCell id="HVY6KOHBtg3tx5gFHr8v-160" value="" style="shape=partialRectangle;whiteSpace=wrap;html=1;bottom=1;right=1;left=1;top=0;fillColor=none;routingCenterX=-0.5;" vertex="1" parent="1">
          <mxGeometry x="645" y="-310" width="30" height="65" as="geometry" />
        </mxCell>
        <mxCell id="HVY6KOHBtg3tx5gFHr8v-161" value="" style="shape=partialRectangle;whiteSpace=wrap;html=1;bottom=1;right=1;left=1;top=0;fillColor=none;routingCenterX=-0.5;direction=south;" vertex="1" parent="1">
          <mxGeometry x="605" y="-315" width="65" height="30" as="geometry" />
        </mxCell>
        <mxCell id="HVY6KOHBtg3tx5gFHr8v-162" value="" style="shape=partialRectangle;whiteSpace=wrap;html=1;bottom=1;right=1;left=1;top=0;fillColor=none;routingCenterX=-0.5;direction=south;" vertex="1" parent="1">
          <mxGeometry x="645" y="-315" width="65" height="30" as="geometry" />
        </mxCell>
        <mxCell id="HVY6KOHBtg3tx5gFHr8v-163" value="" style="shape=partialRectangle;whiteSpace=wrap;html=1;bottom=1;right=1;left=1;top=0;fillColor=none;routingCenterX=-0.5;" vertex="1" parent="1">
          <mxGeometry x="605" y="-235" width="30" height="30" as="geometry" />
        </mxCell>
        <mxCell id="HVY6KOHBtg3tx5gFHr8v-164" value="" style="shape=partialRectangle;whiteSpace=wrap;html=1;bottom=1;right=1;left=1;top=0;fillColor=none;routingCenterX=-0.5;" vertex="1" parent="1">
          <mxGeometry x="325" y="5" width="30" height="30" as="geometry" />
        </mxCell>
        <mxCell id="HVY6KOHBtg3tx5gFHr8v-165" value="" style="shape=partialRectangle;whiteSpace=wrap;html=1;bottom=1;right=1;left=1;top=0;fillColor=none;routingCenterX=-0.5;" vertex="1" parent="1">
          <mxGeometry x="405" y="-35" width="30" height="30" as="geometry" />
        </mxCell>
        <mxCell id="HVY6KOHBtg3tx5gFHr8v-166" value="" style="shape=partialRectangle;whiteSpace=wrap;html=1;bottom=1;right=1;left=1;top=0;fillColor=none;routingCenterX=-0.5;direction=south;" vertex="1" parent="1">
          <mxGeometry x="325" y="-75" width="65" height="30" as="geometry" />
        </mxCell>
        <mxCell id="HVY6KOHBtg3tx5gFHr8v-167" value="" style="endArrow=none;html=1;rounded=0;entryX=1;entryY=0;entryDx=0;entryDy=0;exitX=0;exitY=0;exitDx=0;exitDy=0;" edge="1" parent="1" source="HVY6KOHBtg3tx5gFHr8v-165" target="HVY6KOHBtg3tx5gFHr8v-165">
          <mxGeometry width="50" height="50" relative="1" as="geometry">
            <mxPoint x="400" y="-60" as="sourcePoint" />
            <mxPoint x="450" y="-110" as="targetPoint" />
          </mxGeometry>
        </mxCell>
        <mxCell id="HVY6KOHBtg3tx5gFHr8v-170" value="" style="endArrow=none;html=1;rounded=0;entryX=1;entryY=0;entryDx=0;entryDy=0;exitX=0;exitY=0;exitDx=0;exitDy=0;" edge="1" parent="1">
          <mxGeometry width="50" height="50" relative="1" as="geometry">
            <mxPoint x="325" y="5" as="sourcePoint" />
            <mxPoint x="355" y="5" as="targetPoint" />
          </mxGeometry>
        </mxCell>
        <mxCell id="HVY6KOHBtg3tx5gFHr8v-171" value="" style="endArrow=none;html=1;rounded=0;entryX=1;entryY=0;entryDx=0;entryDy=0;exitX=1;exitY=0;exitDx=0;exitDy=0;" edge="1" parent="1" source="HVY6KOHBtg3tx5gFHr8v-166">
          <mxGeometry width="50" height="50" relative="1" as="geometry">
            <mxPoint x="420" y="-75" as="sourcePoint" />
            <mxPoint x="390" y="-75" as="targetPoint" />
          </mxGeometry>
        </mxCell>
        <mxCell id="HVY6KOHBtg3tx5gFHr8v-172" value="" style="endArrow=none;html=1;rounded=0;entryX=0;entryY=0;entryDx=0;entryDy=0;exitX=0;exitY=0;exitDx=0;exitDy=0;" edge="1" parent="1" target="HVY6KOHBtg3tx5gFHr8v-156">
          <mxGeometry width="50" height="50" relative="1" as="geometry">
            <mxPoint x="432.5" y="-250" as="sourcePoint" />
            <mxPoint x="462.5" y="-250" as="targetPoint" />
          </mxGeometry>
        </mxCell>
        <mxCell id="HVY6KOHBtg3tx5gFHr8v-173" value="" style="endArrow=none;html=1;rounded=0;entryX=1;entryY=0;entryDx=0;entryDy=0;exitX=0;exitY=0;exitDx=0;exitDy=0;" edge="1" parent="1" source="HVY6KOHBtg3tx5gFHr8v-157">
          <mxGeometry width="50" height="50" relative="1" as="geometry">
            <mxPoint x="300" y="-275.47" as="sourcePoint" />
            <mxPoint x="330" y="-275.47" as="targetPoint" />
          </mxGeometry>
        </mxCell>
        <mxCell id="HVY6KOHBtg3tx5gFHr8v-174" value="" style="endArrow=none;html=1;rounded=0;entryX=1;entryY=0;entryDx=0;entryDy=0;exitX=0;exitY=0;exitDx=0;exitDy=0;" edge="1" parent="1">
          <mxGeometry width="50" height="50" relative="1" as="geometry">
            <mxPoint x="205" y="-195" as="sourcePoint" />
            <mxPoint x="235" y="-195" as="targetPoint" />
          </mxGeometry>
        </mxCell>
        <mxCell id="HVY6KOHBtg3tx5gFHr8v-175" value="" style="endArrow=none;html=1;rounded=0;entryX=1;entryY=0;entryDx=0;entryDy=0;exitX=0;exitY=0;exitDx=0;exitDy=0;" edge="1" parent="1">
          <mxGeometry width="50" height="50" relative="1" as="geometry">
            <mxPoint x="85" y="-275" as="sourcePoint" />
            <mxPoint x="115" y="-275" as="targetPoint" />
          </mxGeometry>
        </mxCell>
        <mxCell id="HVY6KOHBtg3tx5gFHr8v-176" value="" style="endArrow=none;html=1;rounded=0;entryX=1;entryY=0;entryDx=0;entryDy=0;exitX=0;exitY=0;exitDx=0;exitDy=0;" edge="1" parent="1">
          <mxGeometry width="50" height="50" relative="1" as="geometry">
            <mxPoint x="125" y="-315" as="sourcePoint" />
            <mxPoint x="155" y="-315" as="targetPoint" />
          </mxGeometry>
        </mxCell>
        <mxCell id="HVY6KOHBtg3tx5gFHr8v-177" value="" style="endArrow=none;html=1;rounded=0;entryX=1;entryY=0;entryDx=0;entryDy=0;exitX=0;exitY=0;exitDx=0;exitDy=0;" edge="1" parent="1">
          <mxGeometry width="50" height="50" relative="1" as="geometry">
            <mxPoint x="165" y="-270" as="sourcePoint" />
            <mxPoint x="195" y="-270" as="targetPoint" />
          </mxGeometry>
        </mxCell>
        <mxCell id="HVY6KOHBtg3tx5gFHr8v-178" value="" style="endArrow=none;html=1;rounded=0;entryX=1;entryY=0;entryDx=0;entryDy=0;exitX=0;exitY=0;exitDx=0;exitDy=0;" edge="1" parent="1">
          <mxGeometry width="50" height="50" relative="1" as="geometry">
            <mxPoint x="605" y="-235" as="sourcePoint" />
            <mxPoint x="635" y="-235" as="targetPoint" />
          </mxGeometry>
        </mxCell>
        <mxCell id="HVY6KOHBtg3tx5gFHr8v-179" value="" style="endArrow=none;html=1;rounded=0;entryX=1;entryY=0;entryDx=0;entryDy=0;exitX=0;exitY=0;exitDx=0;exitDy=0;" edge="1" parent="1">
          <mxGeometry width="50" height="50" relative="1" as="geometry">
            <mxPoint x="645" y="-310" as="sourcePoint" />
            <mxPoint x="675" y="-310" as="targetPoint" />
          </mxGeometry>
        </mxCell>
        <mxCell id="HVY6KOHBtg3tx5gFHr8v-180" value="" style="endArrow=none;html=1;rounded=0;entryX=1;entryY=0;entryDx=0;entryDy=0;exitX=0;exitY=0;exitDx=0;exitDy=0;" edge="1" parent="1" target="HVY6KOHBtg3tx5gFHr8v-162">
          <mxGeometry width="50" height="50" relative="1" as="geometry">
            <mxPoint x="710" y="-315" as="sourcePoint" />
            <mxPoint x="740" y="-315" as="targetPoint" />
          </mxGeometry>
        </mxCell>
        <mxCell id="HVY6KOHBtg3tx5gFHr8v-181" value="" style="endArrow=none;html=1;rounded=0;entryX=1;entryY=0;entryDx=0;entryDy=0;exitX=0;exitY=0;exitDx=0;exitDy=0;" edge="1" parent="1">
          <mxGeometry width="50" height="50" relative="1" as="geometry">
            <mxPoint x="365" y="-515.67" as="sourcePoint" />
            <mxPoint x="395" y="-515.67" as="targetPoint" />
          </mxGeometry>
        </mxCell>
        <mxCell id="HVY6KOHBtg3tx5gFHr8v-182" value="" style="endArrow=none;html=1;rounded=0;entryX=1;entryY=0;entryDx=0;entryDy=0;exitX=0;exitY=0;exitDx=0;exitDy=0;" edge="1" parent="1">
          <mxGeometry width="50" height="50" relative="1" as="geometry">
            <mxPoint x="125" y="-555" as="sourcePoint" />
            <mxPoint x="155" y="-555" as="targetPoint" />
          </mxGeometry>
        </mxCell>
        <mxCell id="HVY6KOHBtg3tx5gFHr8v-183" value="" style="endArrow=none;html=1;rounded=0;entryX=1;entryY=0;entryDx=0;entryDy=0;exitX=0;exitY=0;exitDx=0;exitDy=0;" edge="1" parent="1">
          <mxGeometry width="50" height="50" relative="1" as="geometry">
            <mxPoint x="85" y="-515" as="sourcePoint" />
            <mxPoint x="115" y="-515" as="targetPoint" />
          </mxGeometry>
        </mxCell>
        <mxCell id="HVY6KOHBtg3tx5gFHr8v-184" value="" style="endArrow=none;html=1;rounded=0;entryX=1;entryY=0;entryDx=0;entryDy=0;exitX=0;exitY=0;exitDx=0;exitDy=0;" edge="1" parent="1">
          <mxGeometry width="50" height="50" relative="1" as="geometry">
            <mxPoint x="125" y="-475.66999999999996" as="sourcePoint" />
            <mxPoint x="155" y="-475.66999999999996" as="targetPoint" />
          </mxGeometry>
        </mxCell>
        <mxCell id="HVY6KOHBtg3tx5gFHr8v-185" value="" style="endArrow=none;html=1;rounded=0;entryX=1;entryY=0;entryDx=0;entryDy=0;exitX=0;exitY=0;exitDx=0;exitDy=0;" edge="1" parent="1">
          <mxGeometry width="50" height="50" relative="1" as="geometry">
            <mxPoint x="405" y="-469.99999999999994" as="sourcePoint" />
            <mxPoint x="435" y="-469.99999999999994" as="targetPoint" />
          </mxGeometry>
        </mxCell>
        <mxCell id="HVY6KOHBtg3tx5gFHr8v-187" value="" style="endArrow=none;html=1;rounded=0;entryX=1;entryY=0;entryDx=0;entryDy=0;exitX=0;exitY=0;exitDx=0;exitDy=0;" edge="1" parent="1">
          <mxGeometry width="50" height="50" relative="1" as="geometry">
            <mxPoint x="165" y="-434.99999999999994" as="sourcePoint" />
            <mxPoint x="195" y="-434.99999999999994" as="targetPoint" />
          </mxGeometry>
        </mxCell>
        <mxCell id="HVY6KOHBtg3tx5gFHr8v-188" value="" style="endArrow=none;html=1;rounded=0;entryX=1;entryY=0;entryDx=0;entryDy=0;exitX=0;exitY=0;exitDx=0;exitDy=0;" edge="1" parent="1">
          <mxGeometry width="50" height="50" relative="1" as="geometry">
            <mxPoint x="445" y="-509.99999999999994" as="sourcePoint" />
            <mxPoint x="475" y="-509.99999999999994" as="targetPoint" />
          </mxGeometry>
        </mxCell>
        <mxCell id="HVY6KOHBtg3tx5gFHr8v-189" value="" style="endArrow=none;html=1;rounded=0;entryX=1;entryY=0;entryDx=0;entryDy=0;exitX=0;exitY=0;exitDx=0;exitDy=0;" edge="1" parent="1">
          <mxGeometry width="50" height="50" relative="1" as="geometry">
            <mxPoint x="685" y="-555.67" as="sourcePoint" />
            <mxPoint x="715" y="-555.67" as="targetPoint" />
          </mxGeometry>
        </mxCell>
        <mxCell id="HVY6KOHBtg3tx5gFHr8v-190" value="&lt;b&gt;&lt;font style=&quot;font-size: 17px;&quot;&gt;Seg D&lt;/font&gt;&lt;/b&gt;" style="text;html=1;align=center;verticalAlign=middle;whiteSpace=wrap;rounded=0;" vertex="1" parent="1">
          <mxGeometry x="120" y="-360" width="80" height="40" as="geometry" />
        </mxCell>
        <mxCell id="HVY6KOHBtg3tx5gFHr8v-191" value="&lt;b&gt;&lt;font style=&quot;font-size: 17px;&quot;&gt;Seg E&lt;/font&gt;&lt;/b&gt;" style="text;html=1;align=center;verticalAlign=middle;whiteSpace=wrap;rounded=0;" vertex="1" parent="1">
          <mxGeometry x="360" y="-360" width="80" height="40" as="geometry" />
        </mxCell>
        <mxCell id="HVY6KOHBtg3tx5gFHr8v-192" value="&lt;b&gt;&lt;font style=&quot;font-size: 17px;&quot;&gt;Seg F&lt;/font&gt;&lt;/b&gt;" style="text;html=1;align=center;verticalAlign=middle;whiteSpace=wrap;rounded=0;" vertex="1" parent="1">
          <mxGeometry x="600" y="-360" width="80" height="40" as="geometry" />
        </mxCell>
        <mxCell id="HVY6KOHBtg3tx5gFHr8v-193" value="&lt;b&gt;&lt;font style=&quot;font-size: 17px;&quot;&gt;Seg G&lt;/font&gt;&lt;/b&gt;" style="text;html=1;align=center;verticalAlign=middle;whiteSpace=wrap;rounded=0;" vertex="1" parent="1">
          <mxGeometry x="360" y="-120" width="80" height="40" as="geometry" />
        </mxCell>
        <mxCell id="HVY6KOHBtg3tx5gFHr8v-194" value="&lt;b&gt;&lt;font style=&quot;font-size: 17px;&quot;&gt;Seg A&lt;/font&gt;&lt;/b&gt;" style="text;html=1;align=center;verticalAlign=middle;whiteSpace=wrap;rounded=0;" vertex="1" parent="1">
          <mxGeometry x="120" y="-600" width="80" height="40" as="geometry" />
        </mxCell>
        <mxCell id="HVY6KOHBtg3tx5gFHr8v-195" value="&lt;b&gt;&lt;font style=&quot;font-size: 17px;&quot;&gt;Seg B&lt;/font&gt;&lt;/b&gt;" style="text;html=1;align=center;verticalAlign=middle;whiteSpace=wrap;rounded=0;" vertex="1" parent="1">
          <mxGeometry x="360" y="-600" width="80" height="40" as="geometry" />
        </mxCell>
        <mxCell id="HVY6KOHBtg3tx5gFHr8v-196" value="&lt;b&gt;&lt;font style=&quot;font-size: 17px;&quot;&gt;Seg C&lt;/font&gt;&lt;/b&gt;" style="text;html=1;align=center;verticalAlign=middle;whiteSpace=wrap;rounded=0;" vertex="1" parent="1">
          <mxGeometry x="600" y="-600" width="80" height="40" as="geometry" />
        </mxCell>
      </root>
    </mxGraphModel>
  </diagram>
</mxfile>
